<?xml version="1.0" encoding="utf-8"?>
<!-- Generator: Adobe Illustrator 28.0.0, SVG Export Plug-In . SVG Version: 6.00 Build 0)  -->
<svg version="1.1" id="Layer_1" xmlns="http://www.w3.org/2000/svg" xmlns:xlink="http://www.w3.org/1999/xlink" x="0px" y="0px"
	 viewBox="0 0 170.8 170.8" style="enable-background:new 0 0 170.8 170.8;" xml:space="preserve">
<style type="text/css">
	.st0{fill:#7C5EA5;}
	.st1{fill:#8592BB;}
	.st2{fill:#EAF298;}
	.st3{fill:#F4D2AD;}
	.st4{font-family:'BMHANNAProOTF-KSCpc-EUC-H';}
	.st5{font-size:16.176px;}
</style>
<path class="st0" d="M46.9,123.9l44.4-44.4l44.4,44.4l-44.5,44.4c-3.3,3.3-8.6,3.3-11.8,0l-32.5-32.6
	C43.7,132.5,43.7,127.2,46.9,123.9z"/>
<path class="st1" d="M123.9,123.9L79.5,79.5L123.9,35l44.4,44.4c3.3,3.3,3.3,8.6,0,11.8l-32.6,32.6
	C132.5,127.2,127.2,127.2,123.9,123.9z"/>
<g>
	<path class="st2" d="M123.9,46.9L79.5,91.3L35,46.9L79.5,2.5c3.3-3.3,8.6-3.3,11.8,0L123.9,35C127.2,38.3,127.2,43.6,123.9,46.9z"
		/>
	<path class="st3" d="M85.4,85.4l-38.5,38.5c-3.3,3.3-8.6,3.3-11.8,0L2.5,91.3c-3.3-3.3-3.3-8.6,0-11.8L35,46.9
		c3.3-3.3,8.6-3.3,11.9,0L85.4,85.4z"/>
</g>
<path d="M90,44.3v11.3H72.9V98H61.5V55.7H43.4V44.3H90z M117.7,44.4c8.2,0,18.9,3.3,18.7,17.5l-0.1,17.8c0,13-11,18.4-19.9,18.4h-21
	V44.4H117.7L117.7,44.4z M127,64.6c0-6.7-2.9-9.7-11.1-9.7h-8.7v31.5h9.4c5.3,0,10.4-1.8,10.4-8.5C127,77.9,127,64.6,127,64.6z"/>
<text transform="matrix(1 0 0 1 42.7123 113.6956)" class="st4 st5">RESOURCES</text>
</svg>
